HIERARCHY
ROOT RootJoint
{
    OFFSET   0.000000   0.000000   0.000000
    CHANNELS 6 Xposition Yposition Zposition Xrotation Yrotation Zrotation
    JOINT pelvis_lowerback
    {
        OFFSET   0.000000   0.093605   0.000000
        CHANNELS 3 Xrotation Yrotation Zrotation
        JOINT lowerback_torso
        {
            OFFSET   0.000000   0.100000   0.000000
            CHANNELS 3 Xrotation Yrotation Zrotation
            JOINT torso_head
            {
                OFFSET   0.000000   0.282350   0.000000
                CHANNELS 3 Xrotation Yrotation Zrotation
                End Site
                {
                    OFFSET   0.000000   0.192650   0.000000
                }
            }
            JOINT rTorso_Clavicle
            {
                OFFSET  -0.001000   0.157500   0.000000
                CHANNELS 3 Xrotation Yrotation Zrotation
                JOINT rShoulder
                {
                    OFFSET  -0.117647   0.000000   0.000000
                    CHANNELS 3 Xrotation Yrotation Zrotation
                    JOINT rElbow
                    {
                        OFFSET  -0.245000   0.000000   0.000000
                        CHANNELS 3 Xrotation Yrotation Zrotation
                        JOINT rWrist
                        {
                            OFFSET  -0.240000   0.000000   0.000000
                            CHANNELS 3 Xrotation Yrotation Zrotation
                            End Site
                            {
                                OFFSET  -0.116353  -0.002500   0.000000
                            }
                        }
                    }
                }
            }
            JOINT lTorso_Clavicle
            {
                OFFSET   0.001000   0.157500   0.000000
                CHANNELS 3 Xrotation Yrotation Zrotation
                JOINT lShoulder
                {
                    OFFSET   0.117647   0.000000   0.000000
                    CHANNELS 3 Xrotation Yrotation Zrotation
                    JOINT lElbow
                    {
                        OFFSET   0.245000   0.000000   0.000000
                        CHANNELS 3 Xrotation Yrotation Zrotation
                        JOINT lWrist
                        {
                            OFFSET   0.240000   0.000000   0.000000
                            CHANNELS 3 Xrotation Yrotation Zrotation
                            End Site
                            {
                                OFFSET   0.116353  -0.002500   0.000000
                            }
                        }
                    }
                }
            }
        }
    }
    JOINT rHip
    {
        OFFSET  -0.100000  -0.051395   0.000000
        CHANNELS 3 Xrotation Yrotation Zrotation
        JOINT rKnee
        {
            OFFSET   0.000000  -0.410000   0.000000
            CHANNELS 3 Xrotation Yrotation Zrotation
            JOINT rAnkle
            {
                OFFSET   0.000000  -0.390000   0.000000
                CHANNELS 3 Xrotation Yrotation Zrotation
                JOINT rToeJoint
                {
                    OFFSET   0.000000  -0.050000   0.130000
                    CHANNELS 3 Xrotation Yrotation Zrotation
                    End Site
                    {
                        OFFSET  -0.010000   0.002000   0.060000
                    }
                }
            }
        }
    }
    JOINT lHip
    {
        OFFSET   0.100000  -0.051395   0.000000
        CHANNELS 3 Xrotation Yrotation Zrotation
        JOINT lKnee
        {
            OFFSET   0.000000  -0.410000   0.000000
            CHANNELS 3 Xrotation Yrotation Zrotation
            JOINT lAnkle
            {
                OFFSET   0.000000  -0.390000   0.000000
                CHANNELS 3 Xrotation Yrotation Zrotation
                JOINT lToeJoint
                {
                    OFFSET   0.000000  -0.050000   0.130000
                    CHANNELS 3 Xrotation Yrotation Zrotation
                    End Site
                    {
                        OFFSET   0.010000   0.002000   0.060000
                    }
                }
            }
        }
    }
}
MOTION
Frames: 5
Frame Time:   0.008333
 -2.322352   0.850566   4.201590 -31.817981 -86.697057 -30.509840  17.384481  -8.475843   2.686003   8.008616  -1.953713  11.311900   2.738849   6.296772  -3.669380  -0.993419  15.613892   5.127076  -5.019707  38.067722  54.181852 179.983188  70.925791 -179.985874   4.351915   3.398454   1.227186  -5.048832 -15.410895  15.049552 -14.231260  -4.724890 -24.191763   0.196524 -72.921929   0.154230   3.893479  -5.246059   8.470938 -31.387476   9.109284  -3.035813  40.563744   0.002086  -0.001936  -8.889376  15.862698   5.267253  -0.391140   0.001583  -0.001472  15.213267   1.446745   7.602545  26.750815  -0.000540  -0.000358 -16.024812   9.147927  -2.835558 -31.663916  -0.005757   0.001787
 -2.321727   0.851984   4.202074 -23.052559 -85.858170 -21.557656  17.148978  -8.358218   2.797916   8.245159  -2.011108  11.324299   2.497438   6.264678  -3.578417  -0.972984  15.391679   4.806808  -4.878334  38.266818  53.894067 179.977341  70.613368 -179.979201   4.284794   3.129884   1.289710  -4.769991 -15.581140  14.047556 -12.709941  -5.396758 -25.381718   0.247450 -73.952119   0.193898   3.870398  -5.416804   8.672918 -31.102577   9.076633  -3.537878  40.237158   0.000870  -0.003594  -8.939803  15.098667   5.165216  -0.358998   0.001348  -0.001179  14.738538   1.238083   7.762027  26.688322  -0.000595  -0.000722 -15.203521   8.477467  -2.930625 -33.729240  -0.003952  -0.002732
 -2.321211   0.854129   4.202260 -16.873668 -84.816566 -15.117909  16.846953  -8.200563   2.838009   8.438561  -2.079285  11.245420   2.247119   6.241683  -3.457487  -1.009645  15.167605   4.428369  -4.777174  38.445477  53.587365 179.970359  70.290412 -179.972121   4.218421   2.956093   1.307960  -4.387550 -15.775780  12.928102 -11.202721  -6.089106 -26.646589   0.289083 -74.930017   0.224120   3.859104  -5.700127   8.427289 -30.658769   9.005520  -4.147231  39.713244  -0.000551  -0.006546  -8.928267  14.251996   4.991454  -0.305445   0.001242  -0.000945  14.213670   1.015457   7.888333  26.602477  -0.000741  -0.001282 -14.345244   7.798542  -3.019304 -34.657591  -0.002314  -0.005103
 -2.320826   0.856628   4.202067 -12.733259 -83.660594 -10.674138  16.509170  -8.015274   2.788118   8.591622  -2.129394  11.070869   2.002389   6.222893  -3.335495  -1.082182  14.959733   4.043826  -4.711792  38.616320  53.291586 179.963485  69.972261 -179.965545   4.155684   2.869143   1.288973  -3.974748 -15.949268  11.782817  -9.752750  -6.754450 -27.887123   0.313793 -75.829112   0.239695   3.837653  -5.936531   7.915908 -30.131477   8.892120  -4.801973  39.098631  -0.001749  -0.009753  -8.878986  13.372997   4.783844  -0.244954   0.001180  -0.000758  13.677308   0.800138   7.993017  26.494150  -0.000950  -0.001999 -13.488693   7.150836  -3.093064 -34.813879  -0.001615  -0.004716
 -2.320591   0.859266   4.201454  -9.851355 -82.390078  -7.480823  16.148611  -7.813293   2.663793   8.705925  -2.158224  10.825610   1.769296   6.205246  -3.221387  -1.173167  14.764607   3.666047  -4.668069  38.777099  53.009943 179.957168  69.664557 -179.959712   4.096357   2.840266   1.239506  -3.563946 -16.088203  10.660868  -8.377738  -7.382300 -29.064631   0.321964 -76.654516   0.241484   3.803633  -6.098943   7.296872 -29.548242   8.780158  -5.463828  38.435417  -0.002864  -0.013285  -8.830326  12.534082   4.566311  -0.176559   0.001162  -0.000523  13.130887   0.586128   8.117163  26.372221  -0.001185  -0.002792 -12.654744   6.542824  -3.151723 -34.507651  -0.001915  -0.002236
